<svg xmlns="http://www.w3.org/2000/svg" viewBox="0 0 576 512">
  <path fill="#2E77BC" d="M97.5 115L242.5 115V160L117.5 160L97.5 180L97.5 115Z M97.5 180L97.5 205L222.5 205V250L97.5 250V295L292.5 295V115L137.5 115L117.5 135L97.5 115V180Z M352.5 115L387.5 115L472.5 250V115L507.5 115L507.5 295L472.5 295L387.5 160V295L352.5 295L352.5 115Z M31.5 115L118.5 115L143.5 160L167.5 115L237.5 115L281.5 160V295L246.5 295V175L207.5 235L167.5 235L128.5 175V295L31.5 295L31.5 250L76.5 250L76.5 205L31.5 205L31.5 160L76.5 160L76.5 115"/>
</svg> 