<svg xmlns="http://www.w3.org/2000/svg" viewBox="0 0 131.39 86.9">
  <defs>
    <style>
      .a{fill:#ff5f00;}.b{fill:#eb001b;}.c{fill:#f79e1b;}
    </style>
  </defs>
  <g>
    <rect class="a" x="48.37" y="15.14" width="34.66" height="56.61"/>
    <path class="b" d="M51.94,43.45a35.94,35.94,0,0,1,13.75-28.3,36,36,0,1,0,0,56.61A35.94,35.94,0,0,1,51.94,43.45Z"/>
    <path class="c" d="M120,65.76V64.07H121v-.41h-2.45v.41h1v1.69Zm4.71,0V63.65h-.75l-.87,1.9-.87-1.9h-.75v2.11h.53V64.18l.8,1.81h.56l.81-1.81v1.58Z"/>
    <path class="c" d="M123.94,43.45a36,36,0,0,1-58.25,28.3,36,36,0,0,0,0-56.61,36,36,0,0,1,58.25,28.3Z"/>
  </g>
</svg> 