<svg xmlns="http://www.w3.org/2000/svg" width="1000" height="324" viewBox="0 0 1000 324">
  <defs>
    <linearGradient id="visa-gradient" x1="0" y1="0" x2="1" y2="0">
      <stop offset="0" stop-color="#1A1F71"/>
      <stop offset="1" stop-color="#2B3595"/>
    </linearGradient>
  </defs>
  <path fill="#FFFFFF" d="M651.8,168.6c0-32.2,15.2-60.9,38.5-80H459.2c-7.2,0-13.5,3.8-17,9.5l-59.7,116.6c-3,5.9-3,12.8,0,18.7l59.7,116.6c3.5,5.7,9.8,9.5,17,9.5h231.2c-23.3-19.1-38.5-47.8-38.5-80V168.6z"/>
  <path fill="url(#visa-gradient)" d="M434.1,153.9l-11.4,53.4h-19.7l11.4-53.4H434.1z M602.7,187.9c0,5.7-3.6,15.2-14.4,15.2c-10.9,0-13.7-9.3-13.7-14.4c0-10,6.1-15,15.1-15C598.6,173.6,602.7,180.7,602.7,187.9z M622.8,207.3H604l0.6-4c-4.4,3.3-10.5,4.9-16.7,4.9c-14.3,0-23.5-10.9-23.5-26.2c0-20.1,14.3-31.7,34.2-31.7c2,0,14.7,0,25.1,8.7C623.4,164.1,622.8,206.2,622.8,207.3z M527.3,207.3h-19.4l10.7-50.4h-15l3.1-14.5h49.4l-3.1,14.5h-15L527.3,207.3z M477.4,153.9l-3,14.5h-24.9l-2.4,11.6h24.1l-2.9,14h-24.1l-2.7,13.3h25.6l-3,14.5h-44.3l14.1-67.9H477.4z M690.6,153.9l-2.8,13.9c-3.1-5.8-10.3-7.4-16.3-7.4c-15.5,0-28.1,12.4-28.1,27.5c0,10.2,7.8,18.3,17.9,18.3c7,0,13.4-1.6,18.7-6.4l-1.3,6.1H697l13.3-52.1H690.6z M673.5,191.9c-6.4,0-11.3-3.9-11.3-10.1c0-9.3,6.9-15.5,15.5-15.5c6.5,0,11.3,4,11.3,10.1C689,185.8,682.3,191.9,673.5,191.9z"/>
</svg> 